<?xml version="1.0" encoding="UTF-8" standalone="no"?>
<svg
   xmlns:dc="http://purl.org/dc/elements/1.1/"
   xmlns:cc="http://creativecommons.org/ns#"
   xmlns:rdf="http://www.w3.org/1999/02/22-rdf-syntax-ns#"
   xmlns:svg="http://www.w3.org/2000/svg"
   xmlns="http://www.w3.org/2000/svg"
   version="1.1"
   id="illu_logo"
   height="500"
   width="500">
  <title
     id="title">Illu Logo</title>
  <defs
     id="defs" />
  <metadata
     id="metadata">
    <rdf:RDF>
      <cc:Work
         rdf:about="">
        <dc:format>image/svg+xml</dc:format>
        <dc:type
           rdf:resource="http://purl.org/dc/dcmitype/StillImage" />
        <dc:title>Illu Logo</dc:title>
        <dc:creator>
          <cc:Agent>
            <dc:title>Shusui MOYATANI</dc:title>
          </cc:Agent>
        </dc:creator>
        <dc:date>2015-09-18</dc:date>
        <dc:language>EN</dc:language>
        <dc:description>Illu Language Logo. Special Thanks: Eila Ilmatar Juutilainen</dc:description>
        <cc:license
           rdf:resource="https://creativecommons.org/licenses/by-nd/4.0/" />
      </cc:Work>
      <cc:License
         rdf:about="https://creativecommons.org/licenses/by-nd/4.0/">
        <cc:permits
           rdf:resource="https://creativecommons.org/ns#Reproduction" />
        <cc:permits
           rdf:resource="https://creativecommons.org/ns#Distribution" />
        <cc:requires
           rdf:resource="https://creativecommons.org/ns#Notice" />
        <cc:requires
           rdf:resource="https://creativecommons.org/ns#Attribution" />
      </cc:License>
    </rdf:RDF>
  </metadata>
  <g
     id="LogoGroup"
     transform="matrix(0.71598052,0,0,0.71598052,9.5412796e-6,-2.3856793e-6)">
    <rect
       y="1.2744141e-07"
       x="3.3593751e-05"
       height="698.34302"
       width="698.34302"
       id="Background"
       style="color:#000000;display:inline;overflow:visible;visibility:visible;fill:#7ab9c1;fill-opacity:1;fill-rule:nonzero;stroke:none;stroke-width:3;marker:none;enable-background:accumulate" />
    <g
       id="Logo">
      <g
         transform="matrix(1.7197231,0,0,0.58148897,1730.8931,-79.670143)"
         style="font-style:normal;font-variant:normal;font-weight:100;font-stretch:normal;font-size:257.12625122px;line-height:100%;font-family:Anastasia;-inkscape-font-specification:'Anastasia Thin';text-align:start;letter-spacing:0px;word-spacing:0px;writing-mode:lr-tb;text-anchor:start;fill:#fefbf5;fill-opacity:1;stroke:none"
         id="ILLU_Text">
        <path
           d="m -906.96763,857.79407 -21.08435,0 0,-192.07331 21.08435,0 0,192.07331 z"
           style="font-style:normal;font-variant:normal;font-weight:100;font-stretch:normal;font-size:257.12625122px;line-height:100%;font-family:Anastasia;-inkscape-font-specification:'Anastasia Thin';text-align:start;writing-mode:lr-tb;text-anchor:start;fill:#fefbf5;fill-opacity:1;stroke:none"
           id="ILLU_1" />
        <path
           d="m -822.28069,857.79407 -22.88423,0 q -18.77022,0 -25.71263,-6.94241 -7.71379,-7.71379 -7.71379,-29.31239 l 0,-155.81851 21.08436,0 0,155.81851 q 0,11.31355 1.54275,13.37056 1.54276,2.05701 10.79931,2.05701 l 22.88423,0 0,20.82723 z"
           style="font-style:normal;font-variant:normal;font-weight:100;font-stretch:normal;font-size:257.12625122px;line-height:100%;font-family:Anastasia;-inkscape-font-specification:'Anastasia Thin';text-align:start;writing-mode:lr-tb;text-anchor:start;fill:#fefbf5;fill-opacity:1;stroke:none"
           id="ILLU_2" />
        <path
           d="m -757.49693,857.79407 -22.88424,0 q -18.77021,0 -25.71262,-6.94241 -7.71379,-7.71379 -7.71379,-29.31239 l 0,-155.81851 21.08435,0 0,155.81851 q 0,11.31355 1.54276,13.37056 1.54276,2.05701 10.7993,2.05701 l 22.88424,0 0,20.82723 z"
           style="font-style:normal;font-variant:normal;font-weight:100;font-stretch:normal;font-size:257.12625122px;line-height:100%;font-family:Anastasia;-inkscape-font-specification:'Anastasia Thin';text-align:start;writing-mode:lr-tb;text-anchor:start;fill:#fefbf5;fill-opacity:1;stroke:none"
           id="ILLU_3" />
        <path
           d="m -681.91386,825.13903 q 0,17.48459 -8.99942,27.51251 -8.99942,10.02793 -24.94125,10.02793 -15.6847,0 -24.68412,-10.02793 -8.99941,-10.02792 -8.99941,-27.51251 l 0,-159.41827 21.08435,0 0,159.41827 q 0,16.19896 12.59918,16.19896 13.37057,0 13.37057,-16.19896 l 0,-159.41827 20.5701,0 0,159.41827 z"
           style="font-style:normal;font-variant:normal;font-weight:100;font-stretch:normal;font-size:257.12625122px;line-height:100%;font-family:Anastasia;-inkscape-font-specification:'Anastasia Thin';text-align:start;writing-mode:lr-tb;text-anchor:start;fill:#fefbf5;fill-opacity:1;stroke:none"
           id="ILLU_4" />
      </g>
      <rect
         style="opacity:1;fill:#e1cb6a;fill-opacity:1;stroke:none;stroke-width:1;stroke-linecap:round;stroke-linejoin:miter;stroke-miterlimit:4;stroke-dasharray:none;stroke-dashoffset:0;stroke-opacity:1"
         id="UnderLine"
         width="474.49915"
         height="14.964494"
         x="111.61014"
         y="430.85269" />
      <g
         style="fill:#768283;fill-opacity:1"
         transform="matrix(3.3450972,0,0,3.3450972,-1153.7159,-621.05596)"
         id="Ears">
        <desc
           id="desc16">Eila's ears</desc>
        <path
           id="RightEar"
           d="m 482.95792,248.65588 c 2.8616,1.39944 4.0484,0.8653 2.92035,2.92035 -0.6071,1.13771 -1.02884,2.37106 -1.50628,3.56591 -0.73077,1.92294 -1.53396,3.80597 -2.21332,5.74848 -0.75598,2.21654 -1.44377,4.46388 -1.90592,6.76292 -0.34013,1.45714 -0.67876,2.91333 -0.89147,4.3959 l -0.15371,0.33475 c -0.22148,0.52646 -0.47417,0.62481 -0.64555,1.17152 l -2.39776,-1.29111 c -0.69878,0.13824 -1.40953,0.2378 -2.1211,0.27667 -0.72905,0.0316 -1.45311,0.002 -2.18258,0 -0.64374,0.0386 -1.27507,-0.11849 -1.90591,-0.21519 -0.58606,-0.075 -1.16606,-0.12232 -1.75221,-0.0307 -0.5824,0.13052 -1.18829,0.17928 -1.78296,0.21519 -0.25778,0.009 -0.5107,0.0218 -0.76851,0.0307 l -0.64555,-0.46111 c -0.15039,0.2995 -0.30671,0.59361 -0.46111,0.89148 -0.0928,0.27775 -0.22571,0.55998 -0.33814,0.82999 l -3.07406,-1.75221 c 0.1172,-0.27918 0.24391,-0.54177 0.33815,-0.83 0.27198,-0.51613 0.53487,-1.04783 0.79925,-1.56776 0.2874,-0.5056 0.56178,-1.01776 0.92222,-1.47555 0.40516,-0.66567 0.81456,-1.30842 1.22962,-1.9674 0.3595,-0.53818 0.74883,-1.05119 1.1374,-1.56776 0.42327,-0.52516 0.86571,-1.0504 1.26036,-1.59851 0.42351,-0.51705 0.88899,-1.02536 1.35259,-1.50629 0.75069,-0.7025 1.50077,-1.37797 2.21332,-2.1211 0.82623,-0.8252 1.65134,-1.64656 2.48998,-2.45924 0.61302,-0.60367 1.23234,-1.21571 1.90591,-1.75221 0.80008,-0.73568 1.6792,-1.36633 2.48999,-2.09036 1.12429,-0.94551 2.22001,-1.95824 3.38146,-2.85887 0.73937,-0.58592 1.49165,-1.12192 2.30554,-1.59851 z m 0.1537,0.24592 c -0.0636,0.002 -0.20711,0.0574 -0.1537,0.0922 0.058,0.0377 0.12603,0.0552 0.18444,0.0922 0.026,-0.0974 0.0436,-0.18666 -0.0307,-0.18444 z"
           style="color:#000000;display:inline;overflow:visible;visibility:visible;fill:#768283;fill-opacity:1;fill-rule:nonzero;stroke:none;stroke-width:3;marker:none;enable-background:accumulate" />
        <path
           style="color:#000000;display:inline;overflow:visible;visibility:visible;fill:#768283;fill-opacity:1;fill-rule:nonzero;stroke:none;stroke-width:3;marker:none;enable-background:accumulate"
           d="m 415.83056,248.11446 c -2.9232,1.42956 -4.13554,0.88392 -2.98321,2.9832 0.62017,1.1622 1.05099,2.4221 1.53871,3.64267 0.74649,1.96432 1.56698,3.88788 2.26095,5.87221 0.77225,2.26424 1.47484,4.55995 1.94694,6.90848 0.34746,1.48849 0.69337,2.97603 0.91067,4.49051 l 0.15701,0.34195 c 0.22624,0.53779 0.48438,0.63827 0.65945,1.19675 l 2.44937,-1.31891 c 0.71381,0.14121 1.43987,0.24292 2.16675,0.28263 0.74474,0.0322 1.48438,0.002 2.22956,0 0.65759,0.0394 1.30252,-0.12105 1.94693,-0.21983 0.59867,-0.0766 1.19115,-0.12495 1.78993,-0.0313 0.59493,0.13333 1.21386,0.18313 1.82133,0.21982 0.26332,0.009 0.52169,0.0223 0.78505,0.0313 l 0.65944,-0.47103 c 0.15363,0.30594 0.31332,0.60637 0.47104,0.91065 0.0948,0.28374 0.23056,0.57205 0.34541,0.84786 l 3.14023,-1.78992 c -0.11973,-0.28519 -0.24916,-0.55344 -0.34542,-0.84787 -0.27784,-0.52724 -0.54638,-1.07038 -0.81646,-1.60149 -0.29358,-0.51649 -0.57387,-1.03968 -0.94207,-1.50731 -0.41388,-0.68001 -0.8321,-1.33659 -1.25608,-2.00975 -0.36724,-0.54977 -0.76495,-1.07382 -1.16189,-1.60151 -0.43237,-0.53646 -0.88434,-1.07301 -1.28748,-1.63292 -0.43263,-0.52818 -0.90813,-1.04742 -1.3817,-1.53871 -0.76686,-0.71762 -1.53308,-1.40762 -2.26096,-2.16674 -0.84402,-0.84298 -1.68689,-1.68201 -2.54358,-2.51218 -0.62621,-0.61666 -1.25887,-1.24187 -1.94693,-1.78993 -0.8173,-0.75151 -1.71533,-1.39573 -2.54359,-2.13535 -1.14849,-0.96586 -2.26778,-2.00039 -3.45424,-2.92039 -0.75527,-0.59854 -1.52374,-1.14607 -2.35516,-1.63292 z m -0.15701,0.25121 c 0.065,0.002 0.21157,0.0586 0.15701,0.0942 -0.0592,0.0385 -0.12874,0.0564 -0.1884,0.0942 -0.0266,-0.0995 -0.0446,-0.19068 0.0313,-0.18841 z"
           id="LeftEar" />
      </g>
    </g>
  </g>
</svg>
